<svg xmlns="http://www.w3.org/2000/svg" viewBox="0 0 1920 320" width="1920" height="320" shape-rendering="crispEdges">
<rect x="1064" y="32" width="40" height="8" fill="#E4E0D2"></rect>
<rect x="1056" y="40" width="64" height="8" fill="#E4E0D2"></rect>
<rect x="72" y="48" width="48" height="8" fill="#E4E0D2"></rect>
<rect x="1048" y="48" width="80" height="8" fill="#E4E0D2"></rect>
<rect x="64" y="56" width="72" height="8" fill="#E4E0D2"></rect>
<rect x="1056" y="56" width="64" height="8" fill="#DCD7C6"></rect>
<rect x="56" y="64" width="88" height="8" fill="#E4E0D2"></rect>
<rect x="64" y="72" width="72" height="8" fill="#DCD7C6"></rect>
<rect x="568" y="128" width="32" height="8" fill="#E4E0D2"></rect>
<rect x="560" y="136" width="56" height="8" fill="#E4E0D2"></rect>
<rect x="552" y="144" width="72" height="8" fill="#E4E0D2"></rect>
<rect x="1576" y="144" width="32" height="8" fill="#E4E0D2"></rect>
<rect x="560" y="152" width="56" height="8" fill="#DCD7C6"></rect>
<rect x="1568" y="152" width="56" height="8" fill="#E4E0D2"></rect>
<rect x="1560" y="160" width="72" height="8" fill="#E4E0D2"></rect>
<rect x="1568" y="168" width="56" height="8" fill="#DCD7C6"></rect>
</svg>